<mxfile host="65bd71144e">
    <diagram id="Gi8FVHXBFIGFY0iMYfnc" name="Page-1">
        <mxGraphModel dx="180" dy="208" grid="1" gridSize="10" guides="1" tooltips="1" connect="1" arrows="1" fold="1" page="1" pageScale="1" pageWidth="827" pageHeight="1169" math="0" shadow="0">
            <root>
                <mxCell id="0"/>
                <mxCell id="1" parent="0"/>
                <mxCell id="2" value="Début" style="ellipse;whiteSpace=wrap;html=1;fontSize=10;" parent="1" vertex="1">
                    <mxGeometry x="139" y="20" width="130" height="40" as="geometry"/>
                </mxCell>
                <mxCell id="8" value="Attente&lt;br&gt;caractère" style="shape=manualInput;whiteSpace=wrap;html=1;size=13;fontSize=10;" parent="1" vertex="1">
                    <mxGeometry x="139" y="80" width="130" height="50" as="geometry"/>
                </mxCell>
                <mxCell id="9" value="Plus de 2&lt;br style=&quot;font-size: 10px&quot;&gt;caractères ?" style="html=1;whiteSpace=wrap;aspect=fixed;shape=isoRectangle;fontSize=10;" parent="1" vertex="1">
                    <mxGeometry x="154" y="149" width="100" height="60" as="geometry"/>
                </mxCell>
                <mxCell id="11" value="" style="endArrow=classic;html=1;exitX=0.5;exitY=1;exitDx=0;exitDy=0;exitPerimeter=0;endSize=0;entryX=0.502;entryY=0.014;entryDx=0;entryDy=0;entryPerimeter=0;" parent="1" source="8" target="9" edge="1">
                    <mxGeometry width="50" height="50" relative="1" as="geometry">
                        <mxPoint x="199" y="200" as="sourcePoint"/>
                        <mxPoint x="219" y="150" as="targetPoint"/>
                    </mxGeometry>
                </mxCell>
                <mxCell id="13" value="" style="endArrow=classic;html=1;exitX=-0.005;exitY=0.517;exitDx=0;exitDy=0;exitPerimeter=0;endSize=0;" parent="1" source="9" edge="1">
                    <mxGeometry relative="1" as="geometry">
                        <mxPoint x="119" y="170" as="sourcePoint"/>
                        <mxPoint x="199" y="70" as="targetPoint"/>
                        <Array as="points">
                            <mxPoint x="99" y="180"/>
                            <mxPoint x="99" y="70"/>
                        </Array>
                    </mxGeometry>
                </mxCell>
                <mxCell id="14" value="Non" style="edgeLabel;resizable=0;html=1;align=center;verticalAlign=middle;fontSize=10;" parent="13" connectable="0" vertex="1">
                    <mxGeometry relative="1" as="geometry">
                        <mxPoint y="21" as="offset"/>
                    </mxGeometry>
                </mxCell>
                <mxCell id="17" value="" style="endArrow=classic;html=1;exitX=0.5;exitY=1;exitDx=0;exitDy=0;endSize=0;entryX=0.5;entryY=0;entryDx=0;entryDy=0;" parent="1" source="2" target="8" edge="1">
                    <mxGeometry width="50" height="50" relative="1" as="geometry">
                        <mxPoint x="218.86000000000013" y="60" as="sourcePoint"/>
                        <mxPoint x="219" y="70" as="targetPoint"/>
                    </mxGeometry>
                </mxCell>
                <mxCell id="132" value="" style="edgeStyle=none;html=1;" edge="1" parent="1" source="24" target="96">
                    <mxGeometry relative="1" as="geometry"/>
                </mxCell>
                <UserObject label="Normalisation&lt;br style=&quot;font-size: 10px;&quot;&gt;chaine de caracteres" treeRoot="1" id="24">
                    <mxCell style="whiteSpace=wrap;html=1;align=center;treeFolding=1;treeMoving=1;newEdgeStyle={&quot;edgeStyle&quot;:&quot;elbowEdgeStyle&quot;,&quot;startArrow&quot;:&quot;none&quot;,&quot;endArrow&quot;:&quot;none&quot;};fontSize=10;" parent="1" vertex="1">
                        <mxGeometry x="139" y="222" width="130" height="38" as="geometry"/>
                    </mxCell>
                </UserObject>
                <mxCell id="25" value="" style="endArrow=classic;html=1;exitX=0.501;exitY=0.989;exitDx=0;exitDy=0;exitPerimeter=0;entryX=0.5;entryY=0;entryDx=0;entryDy=0;endSize=0;" parent="1" source="9" target="24" edge="1">
                    <mxGeometry width="50" height="50" relative="1" as="geometry">
                        <mxPoint x="228.86000000000013" y="70" as="sourcePoint"/>
                        <mxPoint x="229.55999999999995" y="96.25" as="targetPoint"/>
                    </mxGeometry>
                </mxCell>
                <mxCell id="100" value="" style="edgeStyle=none;html=1;fontSize=7;endSize=1;" parent="1" source="96" target="97" edge="1">
                    <mxGeometry relative="1" as="geometry"/>
                </mxCell>
                <mxCell id="122" value="" style="edgeStyle=none;html=1;fontSize=7;endSize=1;" parent="1" source="96" target="109" edge="1">
                    <mxGeometry relative="1" as="geometry"/>
                </mxCell>
                <UserObject label="Recettes.Map" treeRoot="1" id="96">
                    <mxCell style="whiteSpace=wrap;html=1;align=center;treeFolding=1;treeMoving=1;newEdgeStyle={&quot;edgeStyle&quot;:&quot;elbowEdgeStyle&quot;,&quot;startArrow&quot;:&quot;none&quot;,&quot;endArrow&quot;:&quot;none&quot;};fontSize=10;" parent="1" vertex="1">
                        <mxGeometry x="139" y="320" width="130" height="29" as="geometry"/>
                    </mxCell>
                </UserObject>
                <mxCell id="99" value="" style="edgeStyle=none;html=1;fontSize=7;endSize=1;" parent="1" source="97" target="98" edge="1">
                    <mxGeometry relative="1" as="geometry"/>
                </mxCell>
                <mxCell id="97" value="Map callback on Recette&lt;br style=&quot;font-size: 7px&quot;&gt;recherche chaine sur description et titre" style="shape=step;perimeter=stepPerimeter;whiteSpace=wrap;html=1;fixedSize=1;size=6;fontSize=7;" parent="1" vertex="1">
                    <mxGeometry x="280" y="320" width="100" height="30" as="geometry"/>
                </mxCell>
                <mxCell id="108" value="Oui" style="edgeStyle=none;html=1;fontSize=7;endSize=1;exitX=0.492;exitY=0.945;exitDx=0;exitDy=0;exitPerimeter=0;entryX=0.5;entryY=1;entryDx=0;entryDy=0;" parent="1" source="98" target="106" edge="1">
                    <mxGeometry relative="1" as="geometry">
                        <mxPoint x="480" y="346" as="targetPoint"/>
                        <Array as="points">
                            <mxPoint x="436" y="390"/>
                            <mxPoint x="331" y="390"/>
                        </Array>
                    </mxGeometry>
                </mxCell>
                <mxCell id="98" value="Trouvé ?" style="html=1;whiteSpace=wrap;aspect=fixed;shape=isoRectangle;fontSize=7;verticalAlign=middle;" parent="1" vertex="1">
                    <mxGeometry x="400" y="312.5" width="73.33" height="44" as="geometry"/>
                </mxCell>
                <mxCell id="101" value="Retourne&lt;br&gt;&quot;à ne pas afficher&quot;" style="ellipse;whiteSpace=wrap;html=1;fontSize=7;" parent="1" vertex="1">
                    <mxGeometry x="280.58000000000004" y="293" width="98.83" height="22" as="geometry"/>
                </mxCell>
                <mxCell id="103" value="" style="edgeStyle=none;html=1;fontSize=7;endSize=1;exitX=0.501;exitY=0.034;exitDx=0;exitDy=0;exitPerimeter=0;entryX=0.5;entryY=0;entryDx=0;entryDy=0;" parent="1" source="98" target="101" edge="1">
                    <mxGeometry relative="1" as="geometry">
                        <mxPoint x="435.85837000000004" y="312.896" as="sourcePoint"/>
                        <mxPoint x="440" y="310" as="targetPoint"/>
                        <Array as="points">
                            <mxPoint x="437" y="270"/>
                            <mxPoint x="330" y="270"/>
                        </Array>
                    </mxGeometry>
                </mxCell>
                <mxCell id="104" value="Non" style="edgeLabel;html=1;align=center;verticalAlign=middle;resizable=0;points=[];fontSize=7;" parent="103" vertex="1" connectable="0">
                    <mxGeometry x="-0.1349" y="-1" relative="1" as="geometry">
                        <mxPoint x="-11" as="offset"/>
                    </mxGeometry>
                </mxCell>
                <mxCell id="106" value="Retourne&lt;br&gt;&quot;à afficher&quot;" style="ellipse;whiteSpace=wrap;html=1;fontSize=7;" parent="1" vertex="1">
                    <mxGeometry x="281.16999999999996" y="355.5" width="98.83" height="22" as="geometry"/>
                </mxCell>
                <UserObject label="Recettes.Map" treeRoot="1" id="109">
                    <mxCell style="whiteSpace=wrap;html=1;align=center;treeFolding=1;treeMoving=1;newEdgeStyle={&quot;edgeStyle&quot;:&quot;elbowEdgeStyle&quot;,&quot;startArrow&quot;:&quot;none&quot;,&quot;endArrow&quot;:&quot;none&quot;};fontSize=10;" parent="1" vertex="1">
                        <mxGeometry x="139" y="515" width="130" height="29" as="geometry"/>
                    </mxCell>
                </UserObject>
                <mxCell id="110" value="Map callback on Recette&lt;br style=&quot;font-size: 7px&quot;&gt;recherche chaine sur description et titre" style="shape=step;perimeter=stepPerimeter;whiteSpace=wrap;html=1;fixedSize=1;size=6;fontSize=7;" parent="1" vertex="1">
                    <mxGeometry x="280.58" y="515" width="100" height="30" as="geometry"/>
                </mxCell>
                <mxCell id="131" value="" style="edgeStyle=none;html=1;fontSize=7;endSize=1;exitX=1;exitY=0.5;exitDx=0;exitDy=0;entryX=0;entryY=0.511;entryDx=0;entryDy=0;entryPerimeter=0;" parent="1" source="112" target="124" edge="1">
                    <mxGeometry relative="1" as="geometry">
                        <Array as="points">
                            <mxPoint x="500" y="530"/>
                            <mxPoint x="500" y="450"/>
                        </Array>
                    </mxGeometry>
                </mxCell>
                <UserObject label="Ingredients.reduce" treeRoot="1" id="112">
                    <mxCell style="whiteSpace=wrap;html=1;align=center;treeFolding=1;treeMoving=1;newEdgeStyle={&quot;edgeStyle&quot;:&quot;elbowEdgeStyle&quot;,&quot;startArrow&quot;:&quot;none&quot;,&quot;endArrow&quot;:&quot;none&quot;};fontSize=10;" parent="1" vertex="1">
                        <mxGeometry x="390.99999999999994" y="515" width="102.75" height="29" as="geometry"/>
                    </mxCell>
                </UserObject>
                <mxCell id="114" value="" style="edgeStyle=none;html=1;fontSize=7;endSize=1;exitX=1;exitY=0.5;exitDx=0;exitDy=0;" parent="1" source="115" target="117" edge="1">
                    <mxGeometry relative="1" as="geometry"/>
                </mxCell>
                <mxCell id="115" value="Reduce callback on Ingredient&lt;br style=&quot;font-size: 7px&quot;&gt;recherche chaine sur ingredient" style="shape=step;perimeter=stepPerimeter;whiteSpace=wrap;html=1;fixedSize=1;size=6;fontSize=7;" parent="1" vertex="1">
                    <mxGeometry x="513.1700000000001" y="514.5" width="100" height="30" as="geometry"/>
                </mxCell>
                <mxCell id="116" value="Oui" style="edgeStyle=none;html=1;fontSize=7;endSize=1;exitX=0.492;exitY=0.945;exitDx=0;exitDy=0;exitPerimeter=0;entryX=0.5;entryY=1;entryDx=0;entryDy=0;" parent="1" source="117" target="121" edge="1">
                    <mxGeometry relative="1" as="geometry">
                        <mxPoint x="713.1700000000001" y="539.5" as="targetPoint"/>
                        <Array as="points">
                            <mxPoint x="669.1700000000001" y="583.5"/>
                            <mxPoint x="564.17" y="583.5"/>
                        </Array>
                    </mxGeometry>
                </mxCell>
                <mxCell id="117" value="Trouvé ?" style="html=1;whiteSpace=wrap;aspect=fixed;shape=isoRectangle;fontSize=7;verticalAlign=middle;" parent="1" vertex="1">
                    <mxGeometry x="633.1700000000001" y="507.5" width="73.33" height="44" as="geometry"/>
                </mxCell>
                <mxCell id="118" value="retourne &quot;accu&quot;" style="ellipse;whiteSpace=wrap;html=1;fontSize=7;" parent="1" vertex="1">
                    <mxGeometry x="513.75" y="486.5" width="98.83" height="22" as="geometry"/>
                </mxCell>
                <mxCell id="119" value="" style="edgeStyle=none;html=1;fontSize=7;endSize=1;exitX=0.501;exitY=0.034;exitDx=0;exitDy=0;exitPerimeter=0;entryX=0.5;entryY=0;entryDx=0;entryDy=0;" parent="1" source="117" target="118" edge="1">
                    <mxGeometry relative="1" as="geometry">
                        <mxPoint x="669.0283700000001" y="506.39599999999996" as="sourcePoint"/>
                        <mxPoint x="673.1700000000001" y="503.5" as="targetPoint"/>
                        <Array as="points">
                            <mxPoint x="670.1700000000001" y="463.5"/>
                            <mxPoint x="563.17" y="463.5"/>
                        </Array>
                    </mxGeometry>
                </mxCell>
                <mxCell id="120" value="Non" style="edgeLabel;html=1;align=center;verticalAlign=middle;resizable=0;points=[];fontSize=7;" parent="119" vertex="1" connectable="0">
                    <mxGeometry x="-0.1349" y="-1" relative="1" as="geometry">
                        <mxPoint as="offset"/>
                    </mxGeometry>
                </mxCell>
                <mxCell id="121" value="Retourne&lt;br&gt;accu + 1" style="ellipse;whiteSpace=wrap;html=1;fontSize=7;" parent="1" vertex="1">
                    <mxGeometry x="514.3399999999999" y="549" width="98.83" height="22" as="geometry"/>
                </mxCell>
                <mxCell id="123" value="Oui" style="edgeStyle=none;html=1;fontSize=7;endSize=1;exitX=0.492;exitY=0.945;exitDx=0;exitDy=0;exitPerimeter=0;entryX=0.5;entryY=1;entryDx=0;entryDy=0;" parent="1" source="124" target="128" edge="1">
                    <mxGeometry relative="1" as="geometry">
                        <mxPoint x="480.59" y="541" as="targetPoint"/>
                        <Array as="points">
                            <mxPoint x="756" y="640"/>
                            <mxPoint x="331" y="640"/>
                        </Array>
                    </mxGeometry>
                </mxCell>
                <mxCell id="124" value="retour &lt;br&gt;reduce &amp;gt; 0 ?&amp;nbsp;" style="html=1;whiteSpace=wrap;aspect=fixed;shape=isoRectangle;fontSize=7;verticalAlign=middle;" parent="1" vertex="1">
                    <mxGeometry x="719.9999999999999" y="427.5" width="73.33" height="44" as="geometry"/>
                </mxCell>
                <mxCell id="125" value="Fin" style="ellipse;whiteSpace=wrap;html=1;fontSize=7;" parent="1" vertex="1">
                    <mxGeometry x="281.17" y="488" width="98.83" height="22" as="geometry"/>
                </mxCell>
                <mxCell id="126" value="" style="edgeStyle=none;html=1;fontSize=7;endSize=1;exitX=0.501;exitY=0.034;exitDx=0;exitDy=0;exitPerimeter=0;entryX=0.5;entryY=0;entryDx=0;entryDy=0;" parent="1" source="124" target="125" edge="1">
                    <mxGeometry relative="1" as="geometry">
                        <mxPoint x="436.44837" y="507.896" as="sourcePoint"/>
                        <mxPoint x="440.59" y="505" as="targetPoint"/>
                        <Array as="points">
                            <mxPoint x="757" y="410"/>
                            <mxPoint x="330" y="410"/>
                        </Array>
                    </mxGeometry>
                </mxCell>
                <mxCell id="127" value="Non" style="edgeLabel;html=1;align=center;verticalAlign=middle;resizable=0;points=[];fontSize=7;" parent="126" vertex="1" connectable="0">
                    <mxGeometry x="-0.1349" y="-1" relative="1" as="geometry">
                        <mxPoint as="offset"/>
                    </mxGeometry>
                </mxCell>
                <mxCell id="128" value="Retourne&lt;br&gt;&quot;à afficher&quot;" style="ellipse;whiteSpace=wrap;html=1;fontSize=7;" parent="1" vertex="1">
                    <mxGeometry x="281.75999999999993" y="550.5" width="98.83" height="22" as="geometry"/>
                </mxCell>
                <mxCell id="130" value="" style="edgeStyle=none;html=1;fontSize=7;endSize=1;exitX=1;exitY=0.5;exitDx=0;exitDy=0;entryX=0;entryY=0.5;entryDx=0;entryDy=0;" parent="1" source="110" target="112" edge="1">
                    <mxGeometry relative="1" as="geometry">
                        <mxPoint x="549.906423992888" y="725.7660599822204" as="sourcePoint"/>
                        <mxPoint x="570" y="725.6718698729667" as="targetPoint"/>
                        <Array as="points"/>
                    </mxGeometry>
                </mxCell>
            </root>
        </mxGraphModel>
    </diagram>
</mxfile>